<svg xmlns="http://www.w3.org/2000/svg" width="256" height="135.8" viewBox="0 0 256 135.8"><path fill="#fff" d="M236.8 4a13.4 13.4 0 0 0-13.3 13.3 13.7 13.7 0 0 0 6.4 11.4l-8.4 26.5a28.9 28.9 0 0 0-4.3-1l-5.4-20.4a13.3 13.3 0 0 0-6.4-24.9 13.5 13.5 0 0 0-13.2 13.2 13.5 13.5 0 0 0 13.2 13.2h.3l5.1 19.1c-8.4 2.1-15.3 10-21.6 17.1s-14.1 15.8-22.5 17.1q-3-34.5-22.9-54C122.4 13.7 94.7 14 93.7 14a60.1 60.1 0 0 0-60.1 60 42.7 42.7 0 0 0 12.5 30.3c-20.9 6.1-34.1 13.3-39.5 20.9a2.9 2.9 0 0 0-.2 3.3 3.1 3.1 0 0 0 2.8 1.8h213.3a3.4 3.4 0 0 0 3.1-2.8 3.5 3.5 0 0 0-2.3-3.6c-5.4-1.5-13.8-5.3-15.6-8.9a2.8 2.8 0 0 1 0-1.8c.8-1.7 3.9-5.6 7.2-9.4 8.6-10.2 20.3-24.4 18.8-35.6a14.2 14.2 0 0 0-6.6-10.2h-.3l8.9-27.5h1.1a13.3 13.3 0 0 0 0-26.5zm-38.5 18.1a7.1 7.1 0 0 1 7.1-7.1 7 7 0 1 1 0 14 7.1 7.1 0 0 1-7.1-6.9zM93.4 20.6c2.3 0 27 .5 45.6 18.8 13.7 13.5 20.9 33.4 21.6 58.8h-48.8a43.2 43.2 0 0 0 7.3-23.9 26 26 0 1 0-51.9 0 3.1 3.1 0 0 0 3.1 3.1 3.3 3.3 0 0 0 3-3.1 19.6 19.6 0 0 1 19.6-19.6 19.4 19.4 0 0 1 19.6 19.6 36.7 36.7 0 1 1-73.3 0 54.3 54.3 0 0 1 54.2-53.7zm134.2 48.6c1.3 8.7-9.9 21.9-17.3 30.8-3.8 4.6-6.9 8.2-7.9 10.7a7.7 7.7 0 0 0 0 7.1c1 2.3 3.3 4.6 5.8 6.4H16.8c6.9-5.1 18.8-10.2 34.9-14.5a42.7 42.7 0 0 0 54.7-5.1h57.3a3 3 0 0 0 3-3.1c0-2 0-4.3-.2-6.3 10.9-1.6 19.3-11 27-19.4 11.2-12.7 18.6-19.8 30-12.2a7 7 0 0 1 4.1 5.6zm9.2-44.8a7.1 7.1 0 0 1-7.2-7.1 7.2 7.2 0 1 1 14.3 0 7.1 7.1 0 0 1-7.1 7.1z"/></svg>